/vscmnt/brussel_pixiu_data/_data_brussel/112/vsc11236/PredSimResults/SUBJ11opt3D/weighted-trackIG/worker_04.mot
version=1
nRows=7
nColumns=50
inDegrees=yes
endheader
                time	         pelvis_tilt	         pelvis_list	     pelvis_rotation	           pelvis_tx	           pelvis_ty	           pelvis_tz	       hip_flexion_r	     hip_adduction_r	      hip_rotation_r	        knee_angle_r	       ankle_angle_r	         mtp_angle_r	       hip_flexion_l	     hip_adduction_l	      hip_rotation_l	        knee_angle_l	       ankle_angle_l	         mtp_angle_l	    lumbar_extension	      lumbar_bending	     lumbar_rotation	 ercspn_r/activation	 intobl_r/activation	 extobl_r/activation	    abd_r/activation	    add_r/activation	hamstrings_r/activation	bifemsh_r/activation	glut_max_r/activation	iliopsoas_r/activation	rect_fem_r/activation	  vasti_r/activation	gastroc_r/activation	 soleus_r/activation	tib_ant_r/activation	 ercspn_l/activation	 intobl_l/activation	 extobl_l/activation	    abd_l/activation	    add_l/activation	hamstrings_l/activation	bifemsh_l/activation	glut_max_l/activation	iliopsoas_l/activation	rect_fem_l/activation	  vasti_l/activation	gastroc_l/activation	 soleus_l/activation	tib_ant_l/activation	
          0.00000000	         -2.52394776	         -1.42615130	          6.77224975	          0.00000000	          0.94264501	         -0.00500298	         30.70561925	         -1.36100098	         -3.59979577	         -9.71288836	          1.60606165	          0.22169708	        -13.22913446	         -3.33117109	         -0.52502424	        -12.43371697	         13.36827115	         28.93099676	        -14.13297543	         -2.66439690	         -3.30876169	          0.02672680	          0.27027390	          0.07095111	          0.01000101	          0.20904544	          0.04212579	          0.11329290	          0.02773897	          0.11484915	          0.04546867	          0.02125041	          0.01000077	          0.01000016	          0.40594392	          0.01000205	          0.01000119	          0.01000135	          0.04396243	          0.01000363	          0.02411600	          0.29868114	          0.03075445	          0.19318511	          0.01000485	          0.01000126	          0.16864382	          0.34673165	          0.01398003	
          0.01436870	         -2.69735690	         -1.50795995	          6.82121545	          0.01880188	          0.94022882	         -0.00351197	         30.54343908	         -1.10295433	         -3.87094907	        -10.81249922	          1.08452160	          0.22890148	        -13.70995633	         -3.61952177	         -0.95785588	        -13.27220009	         12.67351348	         30.78417478	        -13.62909654	         -2.11630976	         -3.52869496	          0.02156608	          0.21805651	          0.05724282	          0.01000051	          0.23563948	          0.04444540	          0.09140768	          0.07853819	          0.09265936	          0.03668461	          0.01714509	          0.01246016	          0.01350686	          0.42441761	          0.01255491	          0.01000195	          0.01000195	          0.03546863	          0.04774671	          0.03315200	          0.25931442	          0.02481296	          0.21773383	          0.01000680	          0.01000171	          0.14147254	          0.32768941	          0.01127921	
          0.02873740	         -2.84679058	         -1.60469607	          6.84932028	          0.03808728	          0.93807596	         -0.00196286	         30.27288484	         -0.85526860	         -4.02885210	        -12.03562175	          0.58606905	          0.20905327	        -14.04823756	         -3.93449492	         -1.39772667	        -14.43442473	         11.82031007	         32.74375305	        -13.08442198	         -1.54034350	         -3.74945587	          0.01740262	          0.17592692	          0.04618308	          0.03649044	          0.20558211	          0.05266625	          0.07375103	          0.11428607	          0.07475682	          0.02959757	          0.01383309	          0.01005331	          0.01089736	          0.49421897	          0.01013392	          0.01000084	          0.01000367	          0.02861588	          0.03852632	          0.03676728	          0.21383205	          0.02001913	          0.18420273	          0.01000293	          0.01000100	          0.11413911	          0.30205752	          0.01000062	
          0.04310610	         -2.97531036	         -1.70166850	          6.84595812	          0.05748466	          0.93641080	         -0.00032006	         29.99300135	         -0.61828147	         -4.27070132	        -13.22670594	         -0.17484898	          0.18225271	        -14.14996749	         -4.26028963	         -1.85312841	        -16.02558094	         10.75213530	         34.81667589	        -12.54301575	         -0.96016358	         -3.95830201	          0.02370315	          0.14193667	          0.03726018	          0.07128386	          0.24391562	          0.05605433	          0.05950423	          0.11055248	          0.06031321	          0.02387978	          0.04724082	          0.01000115	          0.01000042	          0.55926561	          0.03397485	          0.01000090	          0.01000174	          0.02308713	          0.04030462	          0.04179592	          0.17253909	          0.01615145	          0.15746862	          0.01000262	          0.01000078	          0.09208655	          0.27266134	          0.01000062	
          0.05747480	         -3.08285160	         -1.79291207	          6.81150357	          0.07675663	          0.93538396	          0.00140739	         29.77375040	         -0.40012369	         -4.58383793	        -14.55990713	         -0.79736580	          0.13307303	        -13.95062027	         -4.59327230	         -2.32006296	        -18.11891690	          9.43129553	         36.95776765	        -12.02994586	         -0.38491235	         -4.15088029	          0.02875348	          0.11451354	          0.03006127	          0.10059081	          0.26754722	          0.06167348	          0.04801040	          0.11604091	          0.04866023	          0.01926669	          0.13931020	          0.01000152	          0.01000061	          0.59775807	          0.05979217	          0.01000098	          0.01000160	          0.01862656	          0.10435577	          0.04628091	          0.13922236	          0.01303100	          0.12705787	          0.01000185	          0.01000048	          0.07429470	          0.22656753	          0.01000052	
          0.07184349	         -3.17179709	         -1.87615797	          6.74458246	          0.09568659	          0.93518556	          0.00318603	         29.56337763	         -0.19025124	         -4.91035984	        -15.97061964	         -1.01871154	          0.07508631	        -13.38369803	         -4.93176656	         -2.79806521	        -20.78651531	          7.83855669	         39.00414734	        -11.56449344	          0.18338548	         -4.32065451	          0.02321408	          0.09238874	          0.02425326	          0.11591984	          0.28444481	          0.06477238	          0.03873821	          0.13324578	          0.03925871	          0.01554490	          0.19450776	          0.01000135	          0.01000043	          0.58534357	          0.08344634	          0.01000107	          0.01000193	          0.01502782	          0.16811432	          0.05911251	          0.11234744	          0.01051348	          0.10251232	          0.01000131	          0.01000031	          0.05994037	          0.18279275	          0.01000045	
          0.08621219	         -3.24460456	         -1.94719532	          6.64331564	          0.11406816	          0.93592750	          0.00497489	         29.30234480	          0.02291471	         -5.18432894	        -17.36008355	         -0.70476709	          0.04532092	        -12.40223832	         -5.27324758	         -3.28892820	        -24.06614949	          6.00124452	         40.65090969	        -11.16517049	          0.74239921	         -4.46159600	          0.01873235	          0.07453865	          0.01956743	          0.12743669	          0.28951807	          0.06864818	          0.03126129	          0.12918586	          0.03167364	          0.01254230	          0.25477883	          0.01000130	          0.01000044	          0.51050047	          0.09435145	          0.01000189	          0.01000202	          0.01212441	          0.22729021	          0.07158880	          0.10147531	          0.01000037	          0.08270757	          0.01000078	          0.01000018	          0.04835942	          0.14747559	          0.01000111	
